<svg width="229" height="229" viewBox="0 0 229 229" fill="none" xmlns="http://www.w3.org/2000/svg">
<path d="M112.578 3.59052C112.757 1.21375 116.243 1.21375 116.422 3.59052C116.767 8.18575 123.377 8.53216 124.201 3.99823C124.627 1.65307 128.094 2.01758 128.023 4.39994C127.887 9.00609 134.425 10.0416 135.718 5.61863C136.387 3.33099 139.797 4.05566 139.477 6.41769C138.86 10.9843 145.254 12.6976 147.002 8.43399C147.906 6.22877 151.222 7.30593 150.657 9.6216C149.566 14.0986 155.746 16.4709 157.93 12.4134C159.06 10.3148 162.245 11.7327 161.441 13.9766C159.888 18.315 165.786 21.3202 168.382 17.5134C169.725 15.5444 172.744 17.2873 171.711 19.435C169.712 23.5872 175.264 27.1925 178.244 23.6779C179.786 21.8601 182.606 23.909 181.353 25.9369C178.932 29.8575 184.076 34.0233 187.408 30.8396C189.131 29.1928 191.721 31.5253 190.264 33.4111C187.446 37.0572 192.126 41.7379 195.772 38.9198C197.658 37.4622 199.991 40.0527 198.344 41.7758C195.16 45.1073 199.326 50.2516 203.247 47.8301C205.275 46.5776 207.324 49.3977 205.506 50.9393C201.991 53.9197 205.596 59.4714 209.749 57.4729C211.896 56.4392 213.639 59.4581 211.67 60.8012C207.863 63.3979 210.869 69.296 215.207 67.7425C217.451 66.939 218.869 70.1235 216.77 71.2534C212.713 73.438 215.085 79.6179 219.562 78.5264C221.878 77.9618 222.955 81.2771 220.75 82.1815C216.486 83.93 218.199 90.324 222.766 89.7064C225.128 89.387 225.853 92.7968 223.565 93.4657C219.142 94.7589 220.177 101.297 224.784 101.16C227.166 101.089 227.531 104.556 225.185 104.982C220.651 105.806 220.998 112.417 225.593 112.762C227.97 112.941 227.97 116.427 225.593 116.605C220.998 116.951 220.651 123.561 225.185 124.385C227.531 124.811 227.166 128.278 224.784 128.207C220.177 128.07 219.142 134.608 223.565 135.902C225.853 136.57 225.128 139.98 222.766 139.661C218.199 139.043 216.486 145.437 220.75 147.186C222.955 148.09 221.878 151.405 219.562 150.841C215.085 149.749 212.713 155.929 216.77 158.114C218.869 159.244 217.451 162.428 215.207 161.625C210.869 160.071 207.863 165.969 211.67 168.566C213.639 169.909 211.896 172.928 209.749 171.894C205.596 169.896 201.991 175.447 205.506 178.428C207.324 179.969 205.275 182.79 203.247 181.537C199.326 179.116 195.16 184.26 198.344 187.591C199.991 189.314 197.658 191.905 195.772 190.447C192.126 187.629 187.446 192.31 190.264 195.956C191.721 197.842 189.131 200.174 187.408 198.528C184.076 195.344 178.932 199.51 181.353 203.43C182.606 205.458 179.786 207.507 178.244 205.689C175.264 202.175 169.712 205.78 171.711 209.932C172.744 212.08 169.725 213.823 168.382 211.854C165.786 208.047 159.888 211.052 161.441 215.391C162.245 217.635 159.06 219.052 157.93 216.954C155.746 212.896 149.566 215.269 150.657 219.746C151.222 222.061 147.906 223.138 147.002 220.933C145.254 216.67 138.86 218.383 139.477 222.949C139.797 225.312 136.387 226.036 135.718 223.749C134.425 219.326 127.887 220.361 128.023 224.967C128.094 227.35 124.627 227.714 124.201 225.369C123.377 220.835 116.767 221.181 116.422 225.777C116.243 228.153 112.757 228.153 112.578 225.777C112.233 221.181 105.623 220.835 104.799 225.369C104.373 227.714 100.906 227.35 100.977 224.967C101.113 220.361 94.5753 219.326 93.2821 223.749C92.6132 226.036 89.2034 225.312 89.5228 222.949C90.1404 218.383 83.7464 216.67 81.9979 220.933C81.0935 223.138 77.7782 222.061 78.3428 219.746C79.4343 215.269 73.2544 212.896 71.0698 216.954C69.9399 219.052 66.7554 217.635 67.5589 215.391C69.1124 211.052 63.2143 208.047 60.6176 211.854C59.2745 213.823 56.2556 212.08 57.2893 209.932C59.2878 205.78 53.7361 202.175 50.7557 205.689C49.2141 207.507 46.394 205.458 47.6465 203.43C50.068 199.51 44.9238 195.344 41.5922 198.528C39.8691 200.174 37.2786 197.842 38.7362 195.956C41.5543 192.31 36.8736 187.629 33.2276 190.447C31.3417 191.905 29.0092 189.314 30.656 187.591C33.8397 184.26 29.6739 179.115 25.7533 181.537C23.7254 182.79 21.6765 179.969 23.4943 178.428C27.0089 175.447 23.4036 169.896 19.2514 171.894C17.1037 172.928 15.3608 169.909 17.3298 168.566C21.1366 165.969 18.1314 160.071 13.793 161.625C11.5491 162.428 10.1312 159.244 12.2298 158.114C16.2873 155.929 13.915 149.749 9.43801 150.841C7.12235 151.405 6.04516 148.09 8.2504 147.186C12.514 145.437 10.8007 139.043 6.23409 139.661C3.87206 139.98 3.14739 136.57 5.43504 135.902C9.85803 134.608 8.82249 128.07 4.21634 128.207C1.834 128.278 1.46947 124.811 3.81464 124.385C8.34858 123.561 8.00215 116.951 3.40693 116.605C1.03015 116.427 1.03015 112.941 3.40693 112.762C8.00216 112.417 8.34856 105.806 3.81463 104.982C1.46947 104.556 1.83399 101.089 4.21634 101.16C8.82249 101.297 9.85803 94.7589 5.43504 93.4657C3.14739 92.7968 3.87206 89.387 6.2341 89.7064C10.8007 90.324 12.514 83.93 8.2504 82.1815C6.04517 81.2771 7.12234 77.9618 9.43801 78.5264C13.9151 79.6179 16.2873 73.438 12.2298 71.2534C10.1312 70.1235 11.5491 66.939 13.793 67.7425C18.1314 69.296 21.1367 63.3979 17.3298 60.8012C15.3608 59.4581 17.1037 56.4392 19.2514 57.4729C23.4037 59.4714 27.0089 53.9197 23.4943 50.9393C21.6765 49.3978 23.7254 46.5776 25.7533 47.8301C29.6739 50.2517 33.8397 45.1073 30.6559 41.7758C29.0092 40.0527 31.3417 37.4622 33.2275 38.9198C36.8736 41.7379 41.5543 37.0572 38.7362 33.4111C37.2786 31.5253 39.8691 29.1928 41.5922 30.8395C44.9237 34.0233 50.0681 29.8575 47.6465 25.9369C46.394 23.909 49.2142 21.8601 50.7557 23.6779C53.7361 27.1925 59.2878 23.5873 57.2893 19.435C56.2556 17.2873 59.2745 15.5443 60.6176 17.5134C63.2143 21.3202 69.1124 18.315 67.5589 13.9766C66.7554 11.7326 69.9399 10.3148 71.0698 12.4134C73.2544 16.4709 79.4343 14.0987 78.3428 9.6216C77.7782 7.30594 81.0935 6.22876 81.9979 8.43399C83.7464 12.6976 90.1404 10.9843 89.5228 6.41769C89.2034 4.05566 92.6132 3.33099 93.2821 5.61863C94.5753 10.0416 101.113 9.00609 100.977 4.39994C100.906 2.01759 104.373 1.65306 104.799 3.99823C105.623 8.53217 112.233 8.18575 112.578 3.59052Z" stroke="#40464F" stroke-width="2"/>
</svg>
