<svg width="283" height="283" viewBox="0 0 283 283" fill="none" xmlns="http://www.w3.org/2000/svg">
<path d="M131.784 9.24097C134.085 -1.16179 148.915 -1.16179 151.216 9.24097C153.561 19.8401 167.681 22.0765 173.186 12.7206C178.589 3.53807 192.694 8.12104 191.668 18.7257C190.622 29.5306 203.36 36.0209 211.487 28.8241C219.463 21.7606 231.462 30.4779 227.209 40.2464C222.875 50.1994 232.984 60.3083 242.937 55.975C252.706 51.722 261.423 63.7204 254.36 71.6965C247.163 79.8233 253.653 92.5613 264.458 91.5157C275.063 90.4895 279.646 104.594 270.463 109.997C261.107 115.503 263.343 129.623 273.943 131.967C284.345 134.268 284.345 149.099 273.943 151.4C263.343 153.744 261.107 167.865 270.463 173.37C279.646 178.773 275.063 192.878 264.458 191.852C253.653 190.806 247.163 203.544 254.36 211.671C261.423 219.647 252.706 231.645 242.937 227.392C232.984 223.059 222.875 233.168 227.209 243.121C231.462 252.889 219.463 261.607 211.487 254.543C203.36 247.346 190.622 253.837 191.668 264.641C192.694 275.246 178.589 279.829 173.186 270.647C167.681 261.291 153.561 263.527 151.216 274.126C148.915 284.529 134.085 284.529 131.784 274.126C129.439 263.527 115.319 261.291 109.814 270.647C104.411 279.829 90.3059 275.246 91.3321 264.641C92.3777 253.837 79.6397 247.346 71.5129 254.543C63.5368 261.607 51.5384 252.889 55.7914 243.121C60.1247 233.168 50.0158 223.059 40.0628 227.392C30.2943 231.645 21.577 219.647 28.6405 211.671C35.8373 203.544 29.347 190.806 18.5421 191.852C7.93744 192.878 3.35447 178.773 12.537 173.37C21.8929 167.865 19.6565 153.744 9.05737 151.4C-1.34539 149.099 -1.34539 134.268 9.05738 131.967C19.6565 129.623 21.8929 115.503 12.537 109.997C3.35447 104.594 7.93745 90.4895 18.5421 91.5157C29.347 92.5613 35.8373 79.8233 28.6405 71.6965C21.577 63.7204 30.2943 51.722 40.0628 55.975C50.0158 60.3083 60.1247 50.1994 55.7914 40.2464C51.5384 30.4779 63.5368 21.7606 71.5129 28.8241C79.6397 36.0209 92.3777 29.5306 91.3321 18.7257C90.3059 8.12104 104.411 3.53806 109.814 12.7206C115.319 22.0765 129.439 19.8401 131.784 9.24097Z" stroke="#40464F" stroke-width="2"/>
</svg>
