<svg width="191" height="192" viewBox="0 0 191 192" fill="none" xmlns="http://www.w3.org/2000/svg">
<path d="M92.5708 3.55646C93.2645 0.420332 97.7355 0.420355 98.4292 3.55644L102.48 21.8698C103.461 26.3041 109.368 27.2397 111.671 23.3255L121.183 7.1603C122.812 4.39204 127.064 5.77366 126.755 8.97063L124.948 27.6394C124.511 32.1598 129.84 34.8751 133.24 31.8642L147.281 19.4294C149.686 17.3 153.303 19.928 152.021 22.8729L144.534 40.0697C142.721 44.2337 146.95 48.4629 151.114 46.65L168.311 39.1628C171.256 37.8807 173.884 41.4978 171.754 43.9024L159.319 57.9438C156.308 61.3438 159.024 66.6729 163.544 66.2355L182.213 64.4289C185.41 64.1195 186.792 68.3717 184.023 70.0006L167.858 79.5122C163.944 81.8154 164.88 87.7227 169.314 88.7036L187.627 92.7544C190.763 93.4481 190.763 97.9191 187.627 98.6128L169.314 102.664C164.88 103.644 163.944 109.552 167.858 111.855L184.023 121.367C186.792 122.995 185.41 127.248 182.213 126.938L163.544 125.132C159.024 124.694 156.308 130.023 159.319 133.423L171.754 147.465C173.884 149.869 171.256 153.486 168.311 152.204L151.114 144.717C146.95 142.904 142.721 147.134 144.534 151.297L152.021 168.494C153.303 171.439 149.686 174.067 147.281 171.938L133.24 159.503C129.84 156.492 124.511 159.207 124.948 163.728L126.755 182.397C127.064 185.594 122.812 186.975 121.183 184.207L111.671 168.042C109.368 164.127 103.461 165.063 102.48 169.497L98.4292 187.811C97.7355 190.947 93.2645 190.947 92.5708 187.811L88.52 169.497C87.5392 165.063 81.6318 164.127 79.3287 168.042L69.817 184.207C68.1881 186.975 63.9359 185.594 64.2453 182.397L66.0519 163.728C66.4893 159.207 61.1602 156.492 57.7603 159.503L43.7188 171.938C41.3142 174.067 37.6971 171.439 38.9792 168.494L46.4664 151.298C48.2793 147.134 44.0501 142.904 39.8861 144.717L22.6893 152.204C19.7444 153.486 17.1164 149.869 19.2458 147.465L31.6806 133.423C34.6915 130.023 31.9762 124.694 27.4558 125.132L8.78705 126.938C5.59006 127.248 4.20845 122.995 6.97669 121.367L23.1419 111.855C27.0561 109.552 26.1205 103.644 21.6862 102.664L3.37286 98.6128C0.236738 97.9191 0.236761 93.4481 3.37284 92.7544L21.6862 88.7036C26.1205 87.7228 27.0561 81.8154 23.1419 79.5122L6.97671 70.0006C4.20845 68.3717 5.59008 64.1195 8.78704 64.4289L27.4558 66.2355C31.9762 66.6729 34.6915 61.3438 31.6806 57.9439L19.2458 43.9024C17.1164 41.4978 19.7444 37.8807 22.6893 39.1628L39.8861 46.65C44.0501 48.4629 48.2793 44.2337 46.4664 40.0697L38.9793 22.8729C37.6971 19.928 41.3142 17.3 43.7188 19.4294L57.7603 31.8642C61.1602 34.8751 66.4893 32.1598 66.0519 27.6394L64.2453 8.97065C63.9359 5.77366 68.1881 4.39205 69.817 7.16029L79.3286 23.3255C81.6318 27.2397 87.5392 26.3041 88.52 21.8698L92.5708 3.55646Z" stroke="#40464F" stroke-width="2"/>
</svg>
